<?xml version="1.0" encoding="utf-8"?>
<!-- Generator: Adobe Illustrator 16.0.0, SVG Export Plug-In . SVG Version: 6.00 Build 0)  -->
<!DOCTYPE svg PUBLIC "-//W3C//DTD SVG 1.1//EN" "http://www.w3.org/Graphics/SVG/1.1/DTD/svg11.dtd">
<svg version="1.1" id="Layer_1" xmlns="http://www.w3.org/2000/svg" xmlns:xlink="http://www.w3.org/1999/xlink" x="0px" y="0px"
	 width="512px" height="512px" viewBox="0 0 512 512" enable-background="new 0 0 512 512" xml:space="preserve">
<path d="M447.438,229.688C447.5,227.75,448,225.938,448,224c0-70.688-57.313-128-128-128c-47.938,0-89.219,26.688-111.156,65.688
	C203.375,160.719,197.781,160,192,160c-41.938,0-77.219,27.063-90.281,64.563C99.813,224.438,97.969,224,96,224c-53,0-96,43-96,96
	s43,96,96,96h320c53,0,96-43,96-96C512,278.063,484.938,242.75,447.438,229.688z"/>
</svg>
