<?xml version="1.0"?>
<svg xmlns="http://www.w3.org/2000/svg" viewBox="0 0 50 50">
    <path style="line-height:normal;text-indent:0;text-align:start;text-decoration-line:none;text-decoration-style:solid;text-decoration-color:#000;text-transform:none;block-progression:tb;isolation:auto;mix-blend-mode:normal" d="M 24 2 C 11.85 2 2 11.85 2 24 C 2 36.15 11.85 46 24 46 C 27.208538 46 30.251779 45.306221 33 44.070312 L 33 45.25 A 1.0001 1.0001 0 0 0 34.707031 45.957031 L 37.720703 42.943359 L 40.230469 48.416016 A 1.0001 1.0001 0 0 0 41.556641 48.908203 L 45.416016 47.138672 A 1.0001 1.0001 0 0 0 45.908203 45.8125 L 43.300781 40.125 L 48 40.125 A 1.0001 1.0001 0 0 0 48.683594 38.394531 L 43.71875 33.740234 C 45.173683 30.803059 46 27.4998 46 24 C 46 11.85 36.15 2 24 2 z M 24 4 C 35.028 4 44 12.972 44 24 C 44 26.961048 43.341386 29.767571 42.179688 32.296875 L 40.609375 30.824219 C 41.357666 29.009355 41.834937 27.056219 41.949219 25 L 33.972656 25 C 33.972656 25 33.972656 25.001953 33.972656 25.001953 A 1.0001 1.0001 0 0 0 33.953125 25.001953 A 1.0001 1.0001 0 0 0 33 26 L 33 35.574219 C 32.15967 37.750726 31.095182 39.603982 29.845703 41.005859 C 30.952473 40.624266 32.005263 40.132469 33 39.550781 L 33 41.832031 C 30.291915 43.208473 27.240728 44 24 44 C 12.972 44 4 35.028 4 24 C 4 12.972 12.972 4 24 4 z M 23 6.125 C 20.573 6.69 18.408359 9.281 16.943359 13 L 23 13 L 23 6.125 z M 25 6.125 L 25 13 L 31.056641 13 C 29.591641 9.281 27.427 6.69 25 6.125 z M 18.154297 6.9941406 C 14.808297 8.1481406 11.911203 10.257 9.7832031 13 L 14.769531 13 C 15.638531 10.564 16.794297 8.5211406 18.154297 6.9941406 z M 29.845703 6.9941406 C 31.205703 8.5211406 32.361469 10.564 33.230469 13 L 38.216797 13 C 36.088797 10.256 33.191703 8.1471406 29.845703 6.9941406 z M 8.4355469 15 C 7.0545469 17.378 6.2107813 20.097 6.0507812 23 L 13.027344 23 C 13.102344 20.117 13.495391 17.415 14.150391 15 L 8.4355469 15 z M 16.259766 15 C 15.549766 17.392 15.109391 20.115 15.025391 23 L 23 23 L 23 15 L 16.259766 15 z M 25 15 L 25 23 L 32.974609 23 C 32.890609 20.115 32.451234 17.392 31.740234 15 L 25 15 z M 33.849609 15 C 34.504609 17.415 34.897656 20.117 34.972656 23 L 41.949219 23 C 41.789219 20.097 40.945453 17.378 39.564453 15 L 33.849609 15 z M 6.0507812 25 C 6.2107813 27.903 7.0545469 30.622 8.4355469 33 L 14.150391 33 C 13.495391 30.585 13.102344 27.883 13.027344 25 L 6.0507812 25 z M 15.025391 25 C 15.109391 27.885 15.548766 30.608 16.259766 33 L 23 33 L 23 25 L 15.025391 25 z M 25 25 L 25 33 L 31.740234 33 C 32.450234 30.608 32.890609 27.885 32.974609 25 L 25 25 z M 35 28.308594 L 45.470703 38.125 L 41.875 38.125 A 1.0001 1.0001 0 0 0 41.427734 38.230469 L 41.320312 38.285156 A 1.0001 1.0001 0 0 0 40.857422 39.595703 L 43.673828 45.736328 L 41.630859 46.673828 L 38.939453 40.802734 A 1.0001 1.0001 0 0 0 37.322266 40.513672 L 35 42.835938 L 35 28.308594 z M 9.7832031 35 C 11.911203 37.744 14.808297 39.852859 18.154297 41.005859 C 16.794297 39.478859 15.638531 37.436 14.769531 35 L 9.7832031 35 z M 16.943359 35 C 18.408359 38.719 20.573 41.31 23 41.875 L 23 35 L 16.943359 35 z M 25 35 L 25 41.875 C 27.427 41.309 29.591641 38.719 31.056641 35 L 25 35 z" font-weight="400" font-family="sans-serif" white-space="normal" overflow="visible"/>
</svg>
