<?xml version="1.0"?>
<svg xmlns="http://www.w3.org/2000/svg" viewBox="0 0 24 24">
    <path d="M17.516,2.012H6.496l-5.485,9.988l5.473,9.989h11.042l5.473-9.989L17.516,2.012z M16.113,19.384L13.928,17h2.718 L16.113,19.384z M7.999,4.74l1.096,1.195L7.999,6.326V4.74z M17.154,14.727L16.869,16h-3.858l-0.361-0.394l2.666-2.884 L17.154,14.727z M15.997,11.985l2.335-2.526l-0.912,4.078L15.997,11.985z M11.971,14.866l-2.555-2.787l2.703-2.844l2.517,2.746 L11.971,14.866z M10.85,6.37l3.959-1.414L12.133,7.77L10.85,6.37z M10.117,5.57L8.678,4h5.836L10.117,5.57z M9.828,6.735 l1.615,1.762L8.739,11.34l-0.74-0.807V7.388L9.828,6.735z M6.999,9.442L5.827,8.163l1.172-0.418V9.442z M8.726,12.806l2.564,2.797 L10.923,16H7.999v-2.43L8.726,12.806z M6.999,16h-1.31l1.31-1.378V16z M7.999,17h2l-2,2.163V17z M11.361,17h1.21l2.75,3H8.587 L11.361,17z M17.977,15.625L18.321,16h-0.427L17.977,15.625z M18.243,14.435l1.171-5.236l1.579,2.801l-1.895,3.368L18.243,14.435z M18.579,7.718l-3.26,3.527l-2.508-2.736l3.901-4.103L18.579,7.718z M6.999,4.903v1.781L5.741,7.133L6.999,4.903z M4.897,8.629 l2.102,2.293v2.248l-2.102,2.211l-1.902-3.38L4.897,8.629z M5.809,17h1.191v2.116L5.809,17z M17.334,18.504L17.67,17h0.51 L17.334,18.504z"/>
</svg>
