<?xml version="1.0"?>
<svg xmlns="http://www.w3.org/2000/svg" viewBox="0 0 50 50">
    <path d="M 23 2 C 9 2 3 11.5 3 22 C 3 26.2 4.3 30.100781 6.5 33.300781 C 8.7 36.500781 10 40.299219 10 44.199219 L 10 49 L 32 49 L 32 44.699219 L 35.099609 44.900391 C 39.399609 45.300391 43 41.899609 43 37.599609 L 43 32.199219 L 47 30.199219 C 47.9 29.699219 48.199219 28.599219 47.699219 27.699219 L 43 19.599609 C 41.9 10.299609 37 2 23 2 z M 27 8 L 29 8 L 29 10.101562 C 29.637 10.231563 30.228906 10.484031 30.753906 10.832031 L 32.242188 9.34375 L 33.65625 10.757812 L 32.167969 12.246094 C 32.515969 12.770094 32.768437 13.363 32.898438 14 L 35 14 L 35 16 L 32.898438 16 C 32.768437 16.637 32.515969 17.229906 32.167969 17.753906 L 33.65625 19.242188 L 32.242188 20.65625 L 30.753906 19.167969 C 30.229906 19.515969 29.637 19.768438 29 19.898438 L 29 22 L 27 22 L 27 19.898438 C 26.363 19.768438 25.771094 19.515969 25.246094 19.167969 L 23.757812 20.65625 L 22.34375 19.242188 L 23.832031 17.753906 C 23.484031 17.229906 23.231562 16.637 23.101562 16 L 21 16 L 21 14 L 23.101562 14 C 23.231562 13.363 23.484031 12.770094 23.832031 12.246094 L 22.34375 10.757812 L 23.757812 9.34375 L 25.246094 10.832031 C 25.770094 10.484031 26.363 10.231562 27 10.101562 L 27 8 z M 28 12 A 3 3 0 0 0 25 15 A 3 3 0 0 0 28 18 A 3 3 0 0 0 31 15 A 3 3 0 0 0 28 12 z M 15 16 L 17 16 L 17 18.101562 C 17.637 18.231562 18.228906 18.484031 18.753906 18.832031 L 20.242188 17.34375 L 21.65625 18.757812 L 20.167969 20.246094 C 20.515969 20.770094 20.768438 21.363 20.898438 22 L 23 22 L 23 24 L 20.898438 24 C 20.768438 24.637 20.515969 25.229906 20.167969 25.753906 L 21.65625 27.242188 L 20.242188 28.65625 L 18.753906 27.167969 C 18.229906 27.515969 17.637 27.768438 17 27.898438 L 17 30 L 15 30 L 15 27.898438 C 14.363 27.768438 13.771094 27.515969 13.246094 27.167969 L 11.757812 28.65625 L 10.34375 27.242188 L 11.832031 25.753906 C 11.484031 25.229906 11.231562 24.637 11.101562 24 L 9 24 L 9 22 L 11.101562 22 C 11.231563 21.363 11.484031 20.770094 11.832031 20.246094 L 10.34375 18.757812 L 11.757812 17.34375 L 13.246094 18.832031 C 13.770094 18.484031 14.363 18.231562 15 18.101562 L 15 16 z M 16 20 A 3 3 0 0 0 13 23 A 3 3 0 0 0 16 26 A 3 3 0 0 0 19 23 A 3 3 0 0 0 16 20 z"/>
</svg>
