<?xml version="1.0"?>
<svg xmlns="http://www.w3.org/2000/svg" viewBox="0 0 24 24">
    <path d="M 9.6875 2 C 9.4315 2 9.24475 2.1825 9.21875 2.4375 L 8.9375 5.0625 C 8.2825 5.3275 7.673 5.66475 7.125 6.09375 L 4.75 5.03125 C 4.516 4.92525 4.254 4.99575 4.125 5.21875 L 2.0625 8.78125 C 1.9345 9.00425 2.01075 9.2875 2.21875 9.4375 L 4.34375 10.96875 C 4.29575 11.31075 4.25 11.645 4.25 12 C 4.25 12.355 4.29575 12.68925 4.34375 13.03125 L 2.21875 14.5625 C 2.00975 14.7125 1.9335 14.99575 2.0625 15.21875 L 4.125 18.78125 C 4.253 19.00325 4.516 19.07375 4.75 18.96875 L 7.125 17.90625 C 7.673 18.33525 8.2825 18.6725 8.9375 18.9375 L 9.21875 21.5625 C 9.24475 21.8175 9.4315 22 9.6875 22 L 13.8125 22 C 14.0695 22 14.25625 21.8175 14.28125 21.5625 L 14.5625 18.9375 C 15.2175 18.6725 15.827 18.33525 16.375 17.90625 L 18.75 18.96875 C 18.984 19.07475 19.246 19.00425 19.375 18.78125 L 21.4375 15.21875 C 21.5655 14.99575 21.48925 14.7125 21.28125 14.5625 L 19.15625 13.03125 C 19.20425 12.68925 19.25 12.355 19.25 12 C 19.25 11.645 19.20425 11.31075 19.15625 10.96875 L 21.28125 9.4375 C 21.49025 9.2875 21.5665 9.00425 21.4375 8.78125 L 19.375 5.21875 C 19.247 4.99575 18.984 4.92625 18.75 5.03125 L 16.375 6.09375 C 15.827 5.66475 15.2175 5.3275 14.5625 5.0625 L 14.28125 2.4375 C 14.25625 2.1825 14.0685 2 13.8125 2 L 9.6875 2 z M 7 9 L 8 9 L 10 16 L 9 16 L 8.4375 14 L 6.5625 14 L 6 16 L 5 16 L 7 9 z M 11 9 L 12 9 L 13 9 C 14.105 9 15 9.895 15 11 C 15 12.105 14.105 13 13 13 L 12 13 L 12 16 L 11 16 L 11 9 z M 16 9 L 17 9 L 17 16 L 16 16 L 16 9 z M 12 10 L 12 12 L 13 12 C 13.552 12 14 11.552 14 11 C 14 10.448 13.552 10 13 10 L 12 10 z M 7.5 10.75 L 6.84375 13 L 8.15625 13 L 7.5 10.75 z"/>
</svg>
