<?xml version="1.0"?>
<svg xmlns="http://www.w3.org/2000/svg" viewBox="0 0 50 50">
    <path style="text-indent:0;text-align:start;line-height:normal;text-transform:none;block-progression:tb;-inkscape-font-specification:Sans" d="M 16 2 C 13.2 2 11 4.2 11 7 L 11 43 C 11 45.8 13.2 48 16 48 L 34 48 C 36.8 48 39 45.8 39 43 L 39 7 C 39 4.2 36.8 2 34 2 L 16 2 z M 16 4 L 34 4 C 35.7 4 37 5.3 37 7 L 37 38 L 13 38 L 13 7 C 13 5.3 14.3 4 16 4 z M 17.8125 11 A 1.001098 1.001098 0 0 0 18 13 L 32 13 A 1.0001 1.0001 0 1 0 32 11 L 18 11 A 1.0001 1.0001 0 0 0 17.90625 11 A 1.001098 1.001098 0 0 0 17.8125 11 z M 17.8125 16 A 1.001098 1.001098 0 0 0 18 18 L 29 18 A 1.0001 1.0001 0 1 0 29 16 L 18 16 A 1.0001 1.0001 0 0 0 17.90625 16 A 1.001098 1.001098 0 0 0 17.8125 16 z M 17.8125 21 A 1.001098 1.001098 0 0 0 18 23 L 32 23 A 1.0001 1.0001 0 1 0 32 21 L 18 21 A 1.0001 1.0001 0 0 0 17.90625 21 A 1.001098 1.001098 0 0 0 17.8125 21 z M 17.8125 26 A 1.001098 1.001098 0 0 0 18 28 L 29 28 A 1.0001 1.0001 0 1 0 29 26 L 18 26 A 1.0001 1.0001 0 0 0 17.90625 26 A 1.001098 1.001098 0 0 0 17.8125 26 z M 17.8125 31 A 1.001098 1.001098 0 0 0 18 33 L 32 33 A 1.0001 1.0001 0 1 0 32 31 L 18 31 A 1.0001 1.0001 0 0 0 17.90625 31 A 1.001098 1.001098 0 0 0 17.8125 31 z M 25 41 C 26.1 41 27 41.9 27 43 C 27 44.1 26.1 45 25 45 C 23.9 45 23 44.1 23 43 C 23 41.9 23.9 41 25 41 z" overflow="visible" font-family="Sans"/>
</svg>
